<svg width="21" height="33" viewBox="0 0 21 33" fill="none" xmlns="http://www.w3.org/2000/svg">
<path d="M8.2809 0V4.11985H5.19101C2.38951 4.11985 0.0411985 6.46816 0.0411985 9.26966V11.3296C0.0411985 14.1311 1.85393 16.4382 4.53184 17.1386L15.0787 19.8577C15.6554 20.0225 16.4794 21.0524 16.4794 21.6704V23.7303C16.4794 24.3071 16.0262 24.7603 15.4494 24.7603H5.14981C4.65543 24.7603 4.28464 24.5955 4.11985 24.5131V20.6404H0V24.7603C0 26.161 0.82397 27.3558 1.81273 27.9738C2.7603 28.633 3.95506 28.8801 5.14981 28.8801H8.2397V33H12.3596V28.8801H15.4494C18.2921 28.8801 20.5993 26.573 20.5993 23.7303V21.6704C20.5993 18.8689 18.7865 16.5618 16.1086 15.8614L5.5618 13.1423C4.98502 12.9775 4.16105 11.9476 4.16105 11.3296V9.26966C4.16105 8.69288 4.61423 8.2397 5.19101 8.2397H15.4906C15.9438 8.2397 16.3558 8.40449 16.5206 8.48689V12.3596H20.6404V8.2397C20.6404 6.83895 19.8165 5.6442 18.8277 5.02622C17.8801 4.36704 16.6854 4.11985 15.4906 4.11985H12.4007V0H8.2809V0Z" fill="black"/>
</svg>
